<?xml version="1.0" encoding="utf-8"?>
<!-- Generator: Adobe Illustrator 19.1.0, SVG Export Plug-In . SVG Version: 6.00 Build 0)  -->
<!DOCTYPE svg PUBLIC "-//W3C//DTD SVG 1.1//EN" "http://www.w3.org/Graphics/SVG/1.1/DTD/svg11.dtd">
<svg version="1.1" id="Layer_1" xmlns="http://www.w3.org/2000/svg" xmlns:xlink="http://www.w3.org/1999/xlink" x="0px" y="0px"
	 width="380px" height="99.3px" viewBox="0 0 380 99.3" style="enable-background:new 0 0 380 99.3;" xml:space="preserve">
<style type="text/css">
	.st0{fill:#EAE5D3;}
</style>
<g>
	<path class="st0" d="M18.6,28.5h16.7c4.4,0,7.7,0.9,10,2.7c2.2,1.8,3.3,4.6,3.3,8.6c0,2.4-0.4,4.3-1.1,5.7
		c-0.7,1.4-1.9,2.6-3.6,3.7c1.9,0.8,3.3,1.9,4.2,3.4c0.9,1.5,1.3,3.6,1.3,6.3c0,4.1-1.2,7.2-3.6,9.2c-2.4,2-5.8,3-10.2,3h-17V28.5z
		 M34.9,35.8h-7.6V46H35c3.3,0,4.9-1.7,4.9-5.1C39.9,37.5,38.2,35.8,34.9,35.8z M35.2,53.3h-7.9v10.4h7.9c1.9,0,3.3-0.4,4.2-1.1
		c0.9-0.8,1.3-2.1,1.3-4.1C40.7,55,38.8,53.3,35.2,53.3z"/>
	<path class="st0" d="M52.4,71.1V28.5H80V36H61v10h15.2v7.4H61v10.2H80v7.5H52.4z"/>
	<path class="st0" d="M84.9,71.1V28.5h14.6l10.3,35.1h0.6V28.5h8.6v42.6h-14.2L94.2,36h-0.6v35.1H84.9z"/>
	<path class="st0" d="M139.3,71.1V28.5H154l7.5,31.1l7.5-31.1h14.7v42.6h-8.6v-33h-0.9l-8.3,31.1h-8.6l-8.3-31.1h-0.9v33H139.3z"/>
	<path class="st0" d="M186.7,71.1l9.6-42.6h16.4l9.6,42.6h-8.6l-1.7-7.7H197l-1.7,7.7H186.7z M202.9,35.6l-4.3,20.2h11.7l-4.3-20.2
		H202.9z"/>
	<path class="st0" d="M233.8,56.8v14.3h-8.6V28.5h16.5c10,0,15,4.7,15,14c0,5.6-2.1,9.6-6.3,12.3l6.1,16.3H247l-5-14.3H233.8z
		 M246.4,47.5c1-1.3,1.5-2.9,1.5-4.9c0-2-0.5-3.7-1.6-4.9c-1.1-1.2-2.6-1.8-4.6-1.8h-7.9v13.5h8C243.8,49.4,245.4,48.8,246.4,47.5z"
		/>
	<path class="st0" d="M286.3,71.1h-24.2V28.5h8.6v35h15.6V71.1z"/>
	<path class="st0" d="M290.1,71.1V28.5h27.6V36h-18.9v10h15.2v7.4h-15.2v10.2h18.9v7.5H290.1z"/>
	<path class="st0" d="M340.7,71.1h-8.6V53.8l-13.2-25.4h9.6l7.8,17l7.8-17h9.6l-13,25.4V71.1z"/>
</g>
</svg>
