<?xml version="1.0" encoding="utf-8"?>
<!-- Generator: Adobe Illustrator 19.1.0, SVG Export Plug-In . SVG Version: 6.00 Build 0)  -->
<!DOCTYPE svg PUBLIC "-//W3C//DTD SVG 1.1//EN" "http://www.w3.org/Graphics/SVG/1.1/DTD/svg11.dtd">
<svg version="1.1" id="Layer_1" xmlns="http://www.w3.org/2000/svg" xmlns:xlink="http://www.w3.org/1999/xlink" x="0px" y="0px"
	 width="1002px" height="390px" viewBox="0 0 1002 390" style="enable-background:new 0 0 1002 390;" xml:space="preserve">
<style type="text/css">
	.st0{fill:#B75955;}
</style>
<g>
	<path class="st0" d="M542,126.3H372.6c-3.8,0-6.8,3.1-6.8,6.8v115.9c0,3.8,3.1,6.8,6.8,6.8H542c3.8,0,6.8-3.1,6.8-6.8V133.1
		C548.9,129.4,545.8,126.3,542,126.3z M542.9,249.1c0,0.5-0.4,0.8-0.8,0.8H372.6c-0.5,0-0.8-0.4-0.8-0.8V133.1
		c0-0.5,0.4-0.8,0.8-0.8H542c0.5,0,0.8,0.4,0.8,0.8V249.1z"/>
</g>
<g>
	<path class="st0" d="M416,144.9v92.4h112.5v-92.4H416z M429.1,164.9l2.7,0.4l-1.3,1.9L429.1,164.9z M431.5,168.9l2.2-3.2l7.4,1.2
		l-5.7,8.4L431.5,168.9z M439,177.6l5.7-8.4l60,40.6l-5.7,8.4L439,177.6z M513.8,222.1c-0.8,1.2-2.4,1.5-3.5,0.7l-2.5-1.7l-1.7,2.5
		l-3.9-2.6l6.3-9.3l3.9,2.6l-1.7,2.5l2.5,1.7C514.3,219.4,514.6,221,513.8,222.1z"/>
</g>
<g>
	<circle class="st0" cx="391.8" cy="191.1" r="9"/>
</g>
<g>
	<path class="st0" d="M397.5,211.8h-11.2c-0.7,0-1.2-0.5-1.2-1.2v-3.7c0-0.7,0.5-1.2,1.2-1.2h11.2c0.7,0,1.2,0.5,1.2,1.2v3.7
		C398.7,211.2,398.1,211.8,397.5,211.8z"/>
</g>
<g>
	<path class="st0" d="M397.5,222.5h-11.2c-0.7,0-1.2-0.5-1.2-1.2v-3.7c0-0.7,0.5-1.2,1.2-1.2h11.2c0.7,0,1.2,0.5,1.2,1.2v3.7
		C398.7,222,398.1,222.5,397.5,222.5z"/>
</g>
<g>
	<path class="st0" d="M397.5,233.3h-11.2c-0.7,0-1.2-0.5-1.2-1.2v-3.7c0-0.7,0.5-1.2,1.2-1.2h11.2c0.7,0,1.2,0.5,1.2,1.2v3.7
		C398.7,232.7,398.1,233.3,397.5,233.3z"/>
</g>
<g>
	<path class="st0" d="M397.5,154.5h-11.2c-0.7,0-1.2-0.5-1.2-1.2v-3.7c0-0.7,0.5-1.2,1.2-1.2h11.2c0.7,0,1.2,0.5,1.2,1.2v3.7
		C398.7,154,398.1,154.5,397.5,154.5z"/>
</g>
<g>
	<path class="st0" d="M397.5,165.3h-11.2c-0.7,0-1.2-0.5-1.2-1.2v-3.7c0-0.7,0.5-1.2,1.2-1.2h11.2c0.7,0,1.2,0.5,1.2,1.2v3.7
		C398.7,164.7,398.1,165.3,397.5,165.3z"/>
</g>
<g>
	<path class="st0" d="M397.5,176h-11.2c-0.7,0-1.2-0.5-1.2-1.2v-3.7c0-0.7,0.5-1.2,1.2-1.2h11.2c0.7,0,1.2,0.5,1.2,1.2v3.7
		C398.7,175.4,398.1,176,397.5,176z"/>
</g>
<g>
	<g>
		
			<rect x="799.8" y="173.8" transform="matrix(3.938389e-03 -1 1 3.938389e-03 605.8066 995.4603)" class="st0" width="5.6" height="39.6"/>
	</g>
	<g>
		
			<rect x="823" y="192.4" transform="matrix(3.938389e-03 -1 1 3.938389e-03 629.0704 1018.9955)" class="st0" width="6.1" height="2.6"/>
	</g>
	<g>
		<path class="st0" d="M830.3,193.7L830.3,193.7c0,0.8-0.6,1.4-1.4,1.4l-2.9,0l0-2.8l2.9,0C829.7,192.3,830.3,193,830.3,193.7z"/>
	</g>
	<g>
		<polygon class="st0" points="775.8,192.9 775.8,194.2 774.4,193.5 		"/>
	</g>
	<g>
		<polygon class="st0" points="780.5,190.8 780.5,196.4 776.7,194.6 776.8,192.5 		"/>
	</g>
</g>
<g>
	<rect x="545.9" y="184.1" class="st0" width="17.1" height="7.6"/>
</g>
<g>
	<polygon class="st0" points="586.5,318.5 333.5,318.5 333.5,185.7 270,185.7 270,180.7 338.5,180.7 338.5,313.5 581.5,313.5 
		581.5,131.8 556.7,131.8 556.7,186.8 551.7,186.8 551.7,126.8 586.5,126.8 	"/>
</g>
<g>
	<polygon class="st0" points="648.2,260.5 612.5,260.5 612.5,61.5 58.5,61.5 58.5,183.7 117,183.7 117,188.7 53.5,188.7 53.5,56.5 
		617.5,56.5 617.5,255.5 643.2,255.5 643.2,143.2 668.7,143.2 668.7,148.2 648.2,148.2 	"/>
</g>
<g>
	<path class="st0" d="M266,225.5H120c-3.3,0-6-2.7-6-6V111.9c0-3.3,2.7-6,6-6H266c3.3,0,6,2.7,6,6v107.6
		C272,222.8,269.3,225.5,266,225.5z M120,111.8l0,107.6l146,0c0,0,0,0,0,0V111.9L120,111.8z"/>
</g>
<g>
	<path class="st0" d="M257.5,210.2h-130v-88.7h130V210.2z M130.5,207.2h124v-82.7h-124V207.2z"/>
</g>
<g>
	<rect x="117" y="244" class="st0" width="152" height="7.9"/>
</g>
<g>
	<rect x="171" y="222.5" class="st0" width="46" height="22.5"/>
</g>
<g>
	<path class="st0" d="M287.9,290H98.1c-2,0-3.8-1.2-4.5-3.1c-0.7-1.9-0.1-4,1.4-5.3l19.5-16.5c0.9-0.7,1.9-1.1,3.1-1.1h150.7
		c1.1,0,2.2,0.4,3.1,1.1l19.5,16.5c1.5,1.3,2.1,3.4,1.4,5.3C291.7,288.8,289.9,290,287.9,290z M101.5,284h183l-16.6-14H118.1
		L101.5,284z"/>
</g>
<g>
	<path class="st0" d="M257.5,210.2h-130v-31.1h130V210.2z M130.5,207.2h124v-25.1h-124V207.2z"/>
</g>
<g>
	<path class="st0" d="M178.6,182.1h-51.1v-60.6h51.1V182.1z M130.5,179.1h45.1v-54.6h-45.1V179.1z"/>
</g>
<g>
	<rect x="180" y="187.6" class="st0" width="70.6" height="1"/>
</g>
<g>
	<rect x="181.7" y="171.8" class="st0" width="70.6" height="1"/>
</g>
<g>
	<rect x="180" y="194.2" class="st0" width="70.6" height="1"/>
</g>
<g>
	<rect x="180" y="200.9" class="st0" width="70.6" height="1"/>
</g>
<g>
	<rect x="175.6" y="182.1" class="st0" width="3" height="26.6"/>
</g>
<g>
	<rect x="190.5" y="192.7" transform="matrix(0.7071 0.7071 -0.7071 0.7071 194.0713 -79.0853)" class="st0" width="4" height="4"/>
</g>
<g>
	<rect x="206.7" y="192.7" transform="matrix(0.7071 0.7071 -0.7071 0.7071 198.8125 -90.5316)" class="st0" width="4" height="4"/>
</g>
<g>
	<rect x="213.3" y="192.7" transform="matrix(0.7071 0.7071 -0.7071 0.7071 200.7461 -95.1997)" class="st0" width="4" height="4"/>
</g>
<g>
	
		<rect x="231.3" y="192.7" transform="matrix(0.7071 0.7071 -0.7071 0.7071 206.0185 -107.9283)" class="st0" width="4" height="4"/>
</g>
<g>
	<rect x="221.7" y="186.1" transform="matrix(0.7071 0.7071 -0.7071 0.7071 198.4934 -103.058)" class="st0" width="4" height="4"/>
</g>
<g>
	<rect x="230" y="186.1" transform="matrix(0.7071 0.7071 -0.7071 0.7071 200.9278 -108.9352)" class="st0" width="4" height="4"/>
</g>
<g>
	<path class="st0" d="M225.7,165.5c-0.1,0-0.1,0-0.2,0c-1.1-0.1-1.9-1.1-1.8-2.2c0.3-3.1,0-6.7-0.7-7.3c-1.3-1.1-5.6-2.9-8.1-3.7
		c-1-0.4-1.6-1.5-1.2-2.5c0.4-1,1.5-1.6,2.5-1.2c0.7,0.2,7,2.5,9.4,4.4c2.7,2.3,2.2,8.8,2,10.7C227.5,164.7,226.7,165.5,225.7,165.5
		z"/>
</g>
<g>
	<path class="st0" d="M207.1,159.3c-3.2,0-7.2-2.2-8.6-3c-1-0.6-1.3-1.8-0.7-2.7s1.8-1.3,2.7-0.7c2.7,1.6,6.1,2.8,6.9,2.4
		c1.6-0.7,4.9-3.9,6.7-5.8c0.8-0.8,2-0.8,2.8-0.1c0.8,0.8,0.8,2,0.1,2.8c-0.5,0.5-5.1,5.4-7.9,6.7
		C208.5,159.1,207.8,159.3,207.1,159.3z"/>
</g>
<g>
	<path class="st0" d="M226,146.9l-8.1-2.9c-1-0.4-1.6-1.5-1.2-2.6c0.4-1,1.5-1.6,2.6-1.2l6.7,2.4l6.7-2.4c1-0.4,2.2,0.2,2.6,1.2
		c0.4,1-0.2,2.2-1.2,2.6L226,146.9z"/>
</g>
<g>
	<path class="st0" d="M204.7,147.7c-0.6,0-1.1-0.2-1.5-0.7c-0.7-0.8-0.6-2.1,0.2-2.8l6.3-5.3l8.3,0c0,0,0,0,0,0c1.1,0,2,0.9,2,2
		c0,1.1-0.9,2-2,2l-6.9,0l-5.2,4.4C205.7,147.5,205.2,147.7,204.7,147.7z"/>
</g>
<g>
	<circle class="st0" cx="221.8" cy="133.8" r="4.8"/>
</g>
<g>
	<path class="st0" d="M215.3,152.8c-0.3,0-0.5,0-0.8-0.2c-1-0.4-1.5-1.6-1.1-2.6l6.5-15.6c0.4-1,1.6-1.5,2.6-1.1
		c1,0.4,1.5,1.6,1.1,2.6l-6.5,15.6C216.8,152.3,216.1,152.8,215.3,152.8z"/>
</g>
<g>
	<rect x="182.7" y="147.1" class="st0" width="12.7" height="1"/>
</g>
<g>
	<rect x="186.8" y="140.3" class="st0" width="12.7" height="1"/>
</g>
<g>
	<rect x="183.3" y="151.4" class="st0" width="12.7" height="1"/>
</g>
<g>
	<polygon class="st0" points="217,175.5 214.2,173.6 214.2,177.3 	"/>
</g>
<g>
	<path class="st0" d="M314.4,298.6c-2,0-3.9-0.7-5.4-2.1l-5.9-5.3c-2.5-2.3-3.6-5.6-2.8-8.9c0.8-3.3,3.2-5.8,6.5-6.7l2.7-0.7
		c3-0.8,6.2-0.1,8.5,2l6.9,6.1c2.3,2,3.2,5,2.5,8s-2.9,5.2-5.8,6h0l-4.9,1.3C315.8,298.5,315.1,298.6,314.4,298.6z M311.8,277.5
		c-0.5,0-1.1,0.1-1.6,0.2l-2.7,0.7c-2.2,0.6-3.8,2.3-4.4,4.5c-0.5,2.2,0.2,4.5,1.9,6l5.9,5.3c1.3,1.2,3.1,1.6,4.8,1.1l4.9-1.3
		c1.9-0.5,3.2-1.9,3.7-3.8s-0.2-3.8-1.6-5.1l-6.9-6.1C314.7,278.1,313.2,277.5,311.8,277.5z"/>
</g>
<g>
	<path class="st0" d="M313.5,280.7c0,0-3.1-3.1-5.4-3.2l0-1c2.7,0.1,6,3.3,6.1,3.5L313.5,280.7z"/>
</g>
<g>
	<path class="st0" d="M304.4,290.2c-0.3-2.7,0.4-5,2-6.8c4-4.3,12.3-4.1,12.6-4.1l0,1c-0.1,0-8.2-0.2-11.8,3.7c-1.4,1.5-2,3.6-1.8,6
		L304.4,290.2z"/>
</g>
<g>
	<path class="st0" d="M929,233.2H665.7V57H929V233.2z M671.7,227.2H923V63H671.7V227.2z"/>
</g>
<g>
	<path class="st0" d="M853,179H741.7v-64H853V179z M747.7,173H847v-52h-99.3V173z"/>
</g>
<g>
	<path class="st0" d="M900.3,223h-20.7V67.2h20.7V223z M883.7,219h12.7V71.2h-12.7V219z"/>
</g>
<g>
	<polygon class="st0" points="738.8,163.5 738.8,182.3 757.6,182.3 	"/>
</g>
<g>
	<polygon class="st0" points="856.4,163.5 856.4,182.3 837.6,182.3 	"/>
</g>
<g>
	<polygon class="st0" points="855.8,128.3 855.8,109.5 837,109.5 	"/>
</g>
<g>
	<polygon class="st0" points="738.2,128.3 738.2,109.5 757.1,109.5 	"/>
</g>
<g>
	<rect x="890" y="79.8" class="st0" width="8.3" height="4"/>
</g>
<g>
	<rect x="890" y="92.5" class="st0" width="8.3" height="4"/>
</g>
<g>
	<rect x="890" y="105.1" class="st0" width="8.3" height="4"/>
</g>
<g>
	<rect x="890" y="117.8" class="st0" width="8.3" height="4"/>
</g>
<g>
	<rect x="890" y="130.4" class="st0" width="8.3" height="4"/>
</g>
<g>
	<rect x="890" y="143.1" class="st0" width="8.3" height="4"/>
</g>
<g>
	<rect x="890" y="155.7" class="st0" width="8.3" height="4"/>
</g>
<g>
	<rect x="890" y="168.4" class="st0" width="8.3" height="4"/>
</g>
<g>
	<rect x="890" y="181.1" class="st0" width="8.3" height="4"/>
</g>
<g>
	<rect x="890" y="193.7" class="st0" width="8.3" height="4"/>
</g>
<g>
	<rect x="890" y="206.4" class="st0" width="8.3" height="4"/>
</g>
<g>
	<path class="st0" d="M929,246.3H665.7v-19.1H929V246.3z M671.7,240.3H923v-7.1H671.7V240.3z"/>
</g>
<g>
	<rect x="796.3" y="119.8" class="st0" width="2" height="56.2"/>
</g>
<g>
	<rect x="806.4" y="127.3" class="st0" width="12.6" height="2"/>
</g>
<g>
	<rect x="802.4" y="131.4" class="st0" width="16.6" height="2"/>
</g>
<g>
	<rect x="802.4" y="135.8" class="st0" width="16.6" height="2"/>
</g>
<g>
	<rect x="802.4" y="140.2" class="st0" width="16.6" height="2"/>
</g>
<g>
	<rect x="802.4" y="144.6" class="st0" width="16.6" height="2"/>
</g>
<g>
	<rect x="802.4" y="149" class="st0" width="16.6" height="2"/>
</g>
<g>
	<rect x="802.4" y="153.4" class="st0" width="16.6" height="2"/>
</g>
<g>
	<path class="st0" d="M840.9,129.2v11.3h-14.4v-11.3H840.9 M842.9,127.2h-18.4v15.3h18.4V127.2L842.9,127.2z"/>
</g>
<g>
	<path class="st0" d="M790.9,127.1v39.7h-37v-39.7H790.9 M792.9,125.1h-41v43.7h41V125.1L792.9,125.1z"/>
</g>
<g>
	<g>
		<rect x="864.3" y="132.1" class="st0" width="4.1" height="41.2"/>
	</g>
	<g>
		<polygon class="st0" points="868.4,120.6 864.3,129.9 868.4,129.9 		"/>
	</g>
</g>
<g>
	<path class="st0" d="M704.9,333.4h-21.7v-92.6h21.7V333.4z M688.2,328.4h11.7v-82.6h-11.7V328.4z"/>
</g>
<g>
	<path class="st0" d="M731.9,261.9h-21.7v-20.4h21.7V261.9z M715.2,256.9h11.7v-10.4h-11.7V256.9z"/>
</g>
<g>
	<path class="st0" d="M886.1,261.9h-21.7v-20.4h21.7V261.9z M869.4,256.9h11.7v-10.4h-11.7V256.9z"/>
</g>
<g>
	<path class="st0" d="M913.4,333.4h-21.7v-92.6h21.7V333.4z M896.7,328.4h11.7v-82.6h-11.7V328.4z"/>
</g>
<g>
	<path class="st0" d="M704.4,164.7c-8.1,0-14.7-6.6-14.7-14.7s6.6-14.7,14.7-14.7s14.7,6.6,14.7,14.7S712.5,164.7,704.4,164.7z
		 M704.4,138.3c-6.4,0-11.7,5.2-11.7,11.7c0,6.4,5.2,11.7,11.7,11.7s11.7-5.2,11.7-11.7C716.1,143.6,710.9,138.3,704.4,138.3z"/>
</g>
<g>
	<path class="st0" d="M692.8,150h-3c0-6.1,2.7-22.4,2.8-23.1l3,0.5C695.5,127.6,692.8,144.2,692.8,150z"/>
</g>
<g>
	<rect x="219.5" y="173.6" class="st0" width="3.7" height="3.7"/>
</g>
</svg>
