<?xml version="1.0" encoding="utf-8"?>
<!-- Generator: Adobe Illustrator 19.1.0, SVG Export Plug-In . SVG Version: 6.00 Build 0)  -->
<!DOCTYPE svg PUBLIC "-//W3C//DTD SVG 1.1//EN" "http://www.w3.org/Graphics/SVG/1.1/DTD/svg11.dtd">
<svg version="1.1" id="Layer_1" xmlns="http://www.w3.org/2000/svg" xmlns:xlink="http://www.w3.org/1999/xlink" x="0px" y="0px"
	 width="184.5px" height="177px" viewBox="0 0 184.5 177" style="enable-background:new 0 0 184.5 177;" xml:space="preserve">
<style type="text/css">
	.st0{fill:#B75955;}
</style>
<path class="st0" d="M121.9,91.3L147,66.2c7.8-7.8,7.8-20.5,0-28.3c-7.8-7.8-20.5-7.8-28.3,0L93.6,63.1L68.5,37.9
	c-7.8-7.8-20.5-7.8-28.3,0s-7.8,20.5,0,28.3l25.1,25.1l-25.1,25.1c-7.8,7.8-7.8,20.5,0,28.3c3.9,3.9,9,5.9,14.1,5.9
	c5.1,0,10.2-2,14.1-5.9l25.1-25.1l25.1,25.1c3.9,3.9,9,5.9,14.1,5.9c5.1,0,10.2-2,14.1-5.9c7.8-7.8,7.8-20.5,0-28.3L121.9,91.3z"/>
</svg>
