<?xml version="1.0" encoding="utf-8"?>
<!-- Generator: Adobe Illustrator 19.1.0, SVG Export Plug-In . SVG Version: 6.00 Build 0)  -->
<!DOCTYPE svg PUBLIC "-//W3C//DTD SVG 1.1//EN" "http://www.w3.org/Graphics/SVG/1.1/DTD/svg11.dtd">
<svg version="1.1" id="vintage-computer" xmlns="http://www.w3.org/2000/svg" xmlns:xlink="http://www.w3.org/1999/xlink" x="0px"
	 y="0px" width="717.4px" height="620px" viewBox="0 0 717.4 620" style="enable-background:new 0 0 717.4 620;"
	 xml:space="preserve">
<style type="text/css">
	.st0{fill:#D1CEC7;stroke:#4E5356;stroke-width:5;stroke-miterlimit:10;}
	.st1{fill:#38353A;}
	.st2{fill:none;stroke:#455864;stroke-width:2;stroke-miterlimit:10;}
	.st3{fill:#B6B3B2;stroke:#455864;stroke-width:2;stroke-miterlimit:10;}
	.st4{fill:#D1D1D1;stroke:#455864;stroke-width:2;stroke-miterlimit:10;}
	.st5{fill:#D1CEC7;stroke:#455864;stroke-width:2;stroke-miterlimit:10;}
	.st6{fill:#D1CEC7;stroke:#455864;stroke-miterlimit:10;}
	.st7{fill:#E7E5D6;stroke:#455864;stroke-width:2;stroke-miterlimit:10;}
	.st8{fill:#E9E8DB;stroke:#455864;stroke-width:2;stroke-miterlimit:10;}
	.st9{fill:#EAD16B;stroke:#455864;stroke-width:2;stroke-miterlimit:10;}
	.st10{fill:#AF3F3F;stroke:#455864;stroke-width:2;stroke-miterlimit:10;}
	.st11{fill:#C1C0BD;}
	.st12{fill:#4E5356;}
	.st13{fill:#F2F0E4;}
	.st14{fill:none;stroke:#455864;stroke-miterlimit:10;}
	.st15{fill:none;stroke:#455864;stroke-width:5;stroke-miterlimit:10;}
	.st16{fill:#B5BABC;}
</style>
<polyline class="st0" points="484,242.3 484,525 112.3,523 102.4,525 98.3,525 86.2,521 79.3,525 64.6,525 46.5,525 46.5,507.8 
	46.5,503.3 42.5,494.7 46.5,488.2 51.5,482 46.5,477.9 46.5,242.3 484,242.3 "/>
<polyline class="st1" points="485,524.9 485,525 485.2,525 485,524.9 "/>
<line class="st2" x1="245.2" y1="498.8" x2="298.1" y2="498.8"/>
<line class="st2" x1="245.2" y1="489.2" x2="298.1" y2="489.2"/>
<line class="st2" x1="245.2" y1="479.7" x2="298.1" y2="479.7"/>
<line class="st2" x1="245.2" y1="470.1" x2="298.1" y2="470.1"/>
<line class="st2" x1="245.2" y1="460.5" x2="298.1" y2="460.5"/>
<polyline class="st2" points="245.2,450.9 272.2,450.9 283.5,440.4 298.1,440.4 "/>
<polygon class="st3" points="63.9,252.4 63.9,336.9 86,345.5 86,514.9 216.8,514.9 216.8,505.8 253.1,505.8 253.1,435.3 
	216.8,435.3 216.8,395.5 230.8,386.9 230.8,252.4 "/>
<rect x="218" y="259.4" class="st4" width="7" height="16.2"/>
<rect x="218" y="283.4" class="st4" width="7" height="16.2"/>
<rect x="218" y="307.3" class="st4" width="7" height="16.2"/>
<rect x="218" y="331.3" class="st4" width="7" height="16.2"/>
<rect x="218" y="355.2" class="st4" width="7" height="16.2"/>
<polygon class="st5" points="86.1,334.6 86.1,286.2 71.5,286.2 71.5,331.3 "/>
<circle class="st5" cx="78.8" cy="267.5" r="7.3"/>
<rect x="298.3" y="432.7" class="st5" width="42.5" height="72"/>
<rect x="303.8" y="494.3" class="st6" width="4" height="6.6"/>
<rect x="325.7" y="473" class="st6" width="4" height="6.6"/>
<rect x="310" y="453.9" class="st6" width="4" height="6.6"/>
<rect x="253.1" y="347.1" class="st4" width="14.9" height="24.4"/>
<rect x="253.1" y="315.5" class="st4" width="14.9" height="24.4"/>
<rect x="253.1" y="284" class="st4" width="14.9" height="24.4"/>
<rect x="253.1" y="252.4" class="st4" width="14.9" height="24.4"/>
<rect x="275.1" y="347.1" class="st4" width="14.9" height="24.4"/>
<rect x="275.1" y="315.5" class="st4" width="14.9" height="24.4"/>
<rect x="275.1" y="284" class="st4" width="14.9" height="24.4"/>
<rect x="275.1" y="252.4" class="st4" width="14.9" height="24.4"/>
<rect x="297.2" y="347.1" class="st4" width="14.9" height="24.4"/>
<rect x="297.2" y="315.5" class="st4" width="14.9" height="24.4"/>
<rect x="297.2" y="284" class="st7" width="14.9" height="24.4"/>
<rect x="297.2" y="252.4" class="st4" width="14.9" height="24.4"/>
<rect x="319.2" y="347.1" class="st4" width="14.9" height="24.4"/>
<rect x="319.2" y="315.5" class="st4" width="14.9" height="24.4"/>
<rect x="319.2" y="284" class="st4" width="14.9" height="24.4"/>
<rect x="319.2" y="252.4" class="st8" width="14.9" height="24.4"/>
<rect x="341.3" y="347.1" class="st4" width="14.9" height="24.4"/>
<rect x="341.3" y="315.5" class="st4" width="14.9" height="24.4"/>
<rect x="341.3" y="284" class="st4" width="14.9" height="24.4"/>
<rect x="341.3" y="252.4" class="st4" width="14.9" height="24.4"/>
<rect x="363.3" y="347.1" class="st4" width="14.9" height="24.4"/>
<rect x="363.3" y="315.5" class="st9" width="14.9" height="24.4"/>
<rect x="363.3" y="284" class="st4" width="14.9" height="24.4"/>
<rect x="363.3" y="252.4" class="st4" width="14.9" height="24.4"/>
<rect x="385.4" y="347.1" class="st10" width="14.9" height="24.4"/>
<rect x="385.4" y="315.5" class="st4" width="14.9" height="24.4"/>
<rect x="385.4" y="284" class="st4" width="14.9" height="24.4"/>
<rect x="385.4" y="252.4" class="st4" width="14.9" height="24.4"/>
<rect x="464.7" y="252.4" class="st11" width="12.5" height="227.3"/>
<rect x="450.7" y="252.4" class="st11" width="6.2" height="182.7"/>
<rect x="498.2" y="445" class="st0" width="77" height="76"/>
<rect x="542.9" y="453" class="st12" width="4.6" height="58"/>
<path class="st13" d="M640,516c-11.4,13.7-22.8,27.3-34.2,41c-42.8,10.2-17.9-60.8-60.7-50.7c11.4-13.7-9.4-39,2-52.6
	C589.9,443.5,597.2,526.1,640,516z"/>
<g>
	<path class="st14" d="M563.4,500.9c8.4-10.1,16.8-20.2,25.3-30.3"/>
	<path class="st14" d="M571.4,506.4c8.4-10.1,16.8-20.2,25.3-30.3"/>
	<path class="st14" d="M576.4,515.5c8.4-10.1,16.8-20.2,25.3-30.3"/>
	<path class="st14" d="M579.9,526.3c8.4-10.1,16.8-20.2,25.3-30.3"/>
	<path class="st14" d="M583.4,537.1c8.4-10.1,16.8-20.2,25.3-30.3"/>
	<path class="st14" d="M588.4,546.2c8.4-10.1,16.8-20.2,25.3-30.3"/>
	<path class="st14" d="M596.3,551.7c8.4-10.1,16.8-20.2,25.3-30.3"/>
</g>
<rect x="67.3" y="360.6" class="st5" width="8.4" height="144.3"/>
<rect x="527.4" y="454.2" class="st12" width="3.1" height="33.8"/>
<path id="spool-right" class="st4" d="M77.8,359.5c0,22.2,18,40.2,40.2,40.2c22.2,0,40.2-18,40.2-40.2c0-22.2-18-40.2-40.2-40.2
	C95.8,319.3,77.8,337.3,77.8,359.5z M93.9,364.7c-2.8,0-5.1-2.3-5.1-5.1c0-1.4,0.6-2.7,1.5-3.6c0.9-0.9,2.2-1.5,3.6-1.5h5.1v10.2
	H93.9z M142.1,354.4c2.8,0,5.1,2.3,5.1,5.1c0,1.4-0.6,2.7-1.5,3.6c-0.9,0.9-2.2,1.5-3.6,1.5H137v-10.2H142.1z M126,359.5
	c0,4.4-3.5,7.9-7.9,7.9s-7.9-3.6-7.9-7.9s3.5-7.9,7.9-7.9S126,355.2,126,359.5z"/>
<path id="spool-left" class="st4" d="M157.3,486.3c0,24.1,19.5,43.7,43.7,43.7c24.1,0,43.7-19.5,43.7-43.7
	c0-24.1-19.5-43.7-43.7-43.7C176.9,442.6,157.3,462.2,157.3,486.3z M234.4,481.5v9.5h-9.5v-9.5H234.4z M185.8,478.7v15.1h-15.1
	v-15.1H185.8z"/>
<path class="st15" d="M481.9,239.7c10.9,65.6-15.3,108.5-18.3,150.5c-4.3,60.4-0.8,127.9,224.8,142.2"/>
<path class="st16" d="M307.2,230.4c0,0-5.6-21.6-3.2-26.9c2.4-5.3-2.3-6.6-4.7-9.5s-11.4-3.1-9.4-11.7c-6.2-1-14.1,1.3-17.8-2.1
	c-2.6-4.3-2.6-10,8-17.7c-10.6,0.9-14.1-6-8.3-21.7c0,0,8.6-12,16-13.1c6.8-1,11.1,6.9,11.1,6.9s2-13,11.1-12
	c9.1,1,18.9,6,18.9,13.7s-6.4,26.4-6.4,26.4c3.8,0.5,8.7,7.6,7.8,10.4s-5.8,6.9-9.1,7.4c4.3,2.9-1.1,12.9-1.1,12.9s-0.6,5.1-0.9,6
	c-0.7,2-6.7-2.1-7.2,0.8C311.5,202.9,307.3,219,307.2,230.4z"/>
<path class="st16" d="M170.5,230.1c0,0-7.7-18.2-3.7-27c4-8.8-3.8-11-7.7-15.8c-4-4.8-18.9-5.1-15.7-19.5
	c-10.4-1.6-18.3-11.2-14.4-16.8c8.8-5.6,13.6-4,21.5-1.6c-12.8-9.6-30.4-9.9-20.6-36c0,0,6.3-15.7,18.5-17.5c11.3-1.7,16.5,3,16.5,3
	s4-10.7,19.1-9.1s23.2,10.1,23.2,22.9s-9.6,22.3-9.6,22.3c6.4,0.8,8.8,7.2,7.2,12s-11.2,15.2-16.8,16c7.2,4.8,0,13.6,0,13.6
	s-12,4.8-10.4,8s3.2,8,2.4,12.8S170.7,211.1,170.5,230.1z"/>
<g>
</g>
<g>
</g>
<g>
</g>
<g>
</g>
<g>
</g>
<g>
</g>
</svg>
